<svg width="492" height="492" viewBox="0 0 492 492" fill="none" xmlns="http://www.w3.org/2000/svg">
<path d="M491.52 419.562V61.162H387.864C403.206 36.184 411.266 14.392 401.46 4.58201C384.199 -12.687 329.931 25.219 286.295 61.162H0V419.562H153.6V470.762H112.64V491.242H378.88V470.762H337.92V419.562H491.52ZM385.62 20.422C381.5 40.927 331.05 111.297 276.96 165.382C266.537 175.805 257.059 184.424 248.453 191.42L214.624 157.591C221.62 148.986 230.238 139.508 240.66 129.087C294.75 74.997 365.13 24.542 385.62 20.422ZM231.687 203.615C226.826 206.652 222.344 208.994 218.349 210.457C209.352 213.776 204.393 212.501 200.352 209.311C198.86 207.435 197.236 205.704 195.483 204.116C193.205 200.33 192.712 195.511 195.58 187.692C197.045 183.698 199.389 179.216 202.427 174.354L231.687 203.615ZM20.48 81.642H262.211C241.363 99.912 226.636 114.15 226.18 114.607C198.97 141.812 182.67 163.412 176.36 180.642C174.704 185.158 173.751 189.465 173.376 193.591C169.546 193.02 165.638 192.861 161.71 193.452C124.72 199.017 118.9 240.832 118.67 242.612C115.5 267.267 98.71 277.827 91.64 281.222C87.36 283.277 84.79 287.847 85.25 292.597C85.72 297.407 89.16 301.447 93.82 302.652C105.44 305.667 115.99 306.977 125.57 306.977C167.37 306.972 190.5 282.037 201.44 264.932C207.909 254.815 210.734 243.658 209.737 232.81C214.67 232.699 219.888 231.711 225.4 229.688C242.63 223.368 264.23 207.073 291.44 179.863C292.282 179.024 340.711 128.899 374.259 81.643H471.04V337.643H20.48V81.642ZM184.18 253.897C173.39 270.782 153.77 288.647 119.37 286.247C128.11 277.507 136.52 264.382 138.98 245.272C139.14 244.117 143.11 216.962 164.76 213.702C170.237 212.846 175.763 214.552 180.256 218.046C181.341 219.464 182.537 220.844 183.87 222.177C184.286 222.593 184.748 222.878 185.172 223.271C186.294 224.888 187.304 226.62 188.05 228.557C190.93 236.132 189.49 245.602 184.18 253.897ZM317.44 470.762H174.08V419.562H317.44V470.762V470.762ZM20.48 399.082V358.122H471.04V399.082H20.48Z" fill="black"/>
</svg>
