<svg width="511" height="399" viewBox="0 0 511 399" fill="none" xmlns="http://www.w3.org/2000/svg">
<path d="M471.5 0H39.5C17.72 0 0 17.72 0 39.5V359.5C0 381.28 17.72 399 39.5 399H471.5C493.28 399 511 381.28 511 359.5V39.5C511 17.72 493.28 0 471.5 0ZM39.5 15H471.5C485.009 15 496 25.991 496 39.5V64H15V39.5C15 25.991 25.991 15 39.5 15ZM471.5 384H39.5C25.991 384 15 373.009 15 359.5V79H496V359.5C496 373.009 485.009 384 471.5 384Z" fill="black"/>
<path d="M39.5 47C41.47 47 43.41 46.2 44.8 44.8C46.2 43.41 47 41.47 47 39.5C47 37.53 46.2 35.59 44.8 34.2C43.41 32.8 41.47 32 39.5 32C37.53 32 35.59 32.8 34.2 34.2C32.8 35.59 32 37.53 32 39.5C32 41.47 32.8 43.41 34.2 44.8C35.59 46.2 37.53 47 39.5 47Z" fill="black"/>
<path d="M63.5 47C65.47 47 67.41 46.2 68.8 44.8C70.2 43.41 71 41.47 71 39.5C71 37.53 70.2 35.59 68.8 34.2C67.41 32.8 65.47 32 63.5 32C61.53 32 59.59 32.8 58.2 34.2C56.8 35.59 56 37.53 56 39.5C56 41.47 56.8 43.41 58.2 44.8C59.59 46.2 61.53 47 63.5 47Z" fill="black"/>
<path d="M87.5 47C89.47 47 91.41 46.2 92.8 44.8C94.2 43.41 95 41.47 95 39.5C95 37.53 94.2 35.59 92.8 34.2C91.41 32.8 89.47 32 87.5 32C85.53 32 83.59 32.8 82.2 34.2C80.8 35.59 80 37.53 80 39.5C80 41.47 80.8 43.41 82.2 44.8C83.59 46.2 85.53 47 87.5 47Z" fill="black"/>
<path d="M289.774 136.353C285.829 135.098 281.609 137.279 280.353 141.226L224.353 317.226C223.097 321.173 225.279 325.391 229.226 326.647C229.982 326.888 230.748 327.002 231.502 327.002C234.681 327.002 237.632 324.965 238.647 321.774L294.647 145.774C295.903 141.827 293.721 137.609 289.774 136.353Z" fill="black"/>
<path d="M324.803 154.197C321.874 151.268 317.125 151.268 314.197 154.197C311.268 157.126 311.268 161.874 314.197 164.803L380.894 231.5L314.197 298.197C311.268 301.126 311.268 305.874 314.197 308.803C315.661 310.267 317.581 311 319.5 311C321.419 311 323.339 310.268 324.803 308.803L396.803 236.803C399.732 233.874 399.732 229.126 396.803 226.197L324.803 154.197Z" fill="black"/>
<path d="M204.803 154.197C201.874 151.268 197.125 151.268 194.197 154.197L122.197 226.197C119.268 229.126 119.268 233.874 122.197 236.803L194.197 308.803C195.661 310.267 197.581 311 199.5 311C201.419 311 203.339 310.268 204.803 308.803C207.732 305.874 207.732 301.126 204.803 298.197L138.106 231.5L204.803 164.803C207.732 161.874 207.732 157.126 204.803 154.197Z" fill="black"/>
<path d="M119.5 47H423.5C427.642 47 431 43.642 431 39.5C431 35.358 427.642 32 423.5 32H119.5C115.358 32 112 35.358 112 39.5C112 43.642 115.358 47 119.5 47Z" fill="black"/>
<path d="M455.5 47H471.5C475.642 47 479 43.642 479 39.5C479 35.358 475.642 32 471.5 32H455.5C451.358 32 448 35.358 448 39.5C448 43.642 451.358 47 455.5 47Z" fill="black"/>
</svg>
